<svg width="226" height="120" viewBox="0 0 226 120" fill="none" xmlns="http://www.w3.org/2000/svg">
<g id="Money/200">
<g clip-path="url(#clip0_2119_1960)">
<rect id="Rectangle 3518" x="1.5" y="1.5" width="222.882" height="117" rx="22.5" fill="#DAE4C6" stroke="#B4D3A8" stroke-width="3"/>
<g id="200">
<path d="M68.2107 80.7887H86.7863V88.2323H57.1459V81.3252L71.899 66.0356C74.0449 63.7556 75.5873 61.7214 76.5261 59.9332C77.465 58.1449 77.9344 56.3343 77.9344 54.5013C77.9344 52.1766 77.2861 50.366 75.9897 49.0695C74.6932 47.7283 72.8826 47.0577 70.5578 47.0577C68.3225 47.0577 66.5343 47.773 65.1931 49.2036C63.8966 50.5895 62.9577 52.7801 62.3766 55.7755L55 54.0319C55.76 49.2483 57.4365 45.6495 60.0295 43.2353C62.6671 40.7765 66.1766 39.547 70.5578 39.547C75.2967 39.547 79.052 40.8882 81.8238 43.5706C84.5956 46.2083 85.9815 49.7848 85.9815 54.3002C85.9815 57.2061 85.3109 59.9332 83.9698 62.4814C82.6733 65.0297 80.3038 68.1144 76.8614 71.7357L68.2107 80.7887Z" fill="#537E5C"/>
<path d="M111.624 88.97C106.259 88.97 102.102 87.1594 99.1509 83.5382C96.2003 79.9169 94.725 74.798 94.725 68.1815V60.7379C94.725 53.8531 96.1779 48.6001 99.0838 44.9789C101.99 41.3129 106.17 39.48 111.624 39.48C117.123 39.48 121.325 41.3129 124.231 44.9789C127.182 48.6001 128.657 53.8531 128.657 60.7379V68.1815C128.657 74.798 127.159 79.9169 124.164 83.5382C121.214 87.1594 117.033 88.97 111.624 88.97ZM111.624 81.5264C114.709 81.5264 116.966 80.4534 118.397 78.3075C119.872 76.1169 120.61 72.7416 120.61 68.1815V60.7379C120.61 55.999 119.872 52.5119 118.397 50.2766C116.966 48.0413 114.709 46.9236 111.624 46.9236C108.584 46.9236 106.349 48.0413 104.918 50.2766C103.487 52.5119 102.772 55.999 102.772 60.7379V68.1815C102.772 72.7416 103.487 76.1169 104.918 78.3075C106.349 80.4534 108.584 81.5264 111.624 81.5264Z" fill="#537E5C"/>
<path d="M153.995 88.97C148.63 88.97 144.472 87.1594 141.522 83.5382C138.571 79.9169 137.096 74.798 137.096 68.1815V60.7379C137.096 53.8531 138.549 48.6001 141.455 44.9789C144.36 41.3129 148.54 39.48 153.995 39.48C159.494 39.48 163.696 41.3129 166.602 44.9789C169.552 48.6001 171.028 53.8531 171.028 60.7379V68.1815C171.028 74.798 169.53 79.9169 166.535 83.5382C163.584 87.1594 159.404 88.97 153.995 88.97ZM153.995 81.5264C157.079 81.5264 159.337 80.4534 160.768 78.3075C162.243 76.1169 162.981 72.7416 162.981 68.1815V60.7379C162.981 55.999 162.243 52.5119 160.768 50.2766C159.337 48.0413 157.079 46.9236 153.995 46.9236C150.955 46.9236 148.719 48.0413 147.289 50.2766C145.858 52.5119 145.143 55.999 145.143 60.7379V68.1815C145.143 72.7416 145.858 76.1169 147.289 78.3075C148.719 80.4534 150.955 81.5264 153.995 81.5264Z" fill="#537E5C"/>
</g>
</g>
</g>
<defs>
<clipPath id="clip0_2119_1960">
<rect width="226" height="120" rx="24" fill="white"/>
</clipPath>
</defs>
</svg>
