<svg width="99" height="40" viewBox="0 0 99 40" fill="none" xmlns="http://www.w3.org/2000/svg">
<rect width="99" height="40" rx="8" fill="white" fill-opacity="0.24"/>
<path d="M15.0852 10.7933L16.3721 9.5065C17.1617 8.71684 18.4816 8.87182 19.0669 9.8229L21.2602 13.3871C21.7902 14.2483 21.607 15.3682 20.8301 16.0156L19.6847 16.9701C19.2679 17.3174 19.1222 17.8936 19.3236 18.3973C20.4693 21.2614 22.7387 23.5308 25.6028 24.6765C26.1065 24.878 26.6827 24.7322 27.03 24.3154L27.9845 23.17C28.6319 22.3931 29.7517 22.2099 30.613 22.7399L34.1771 24.9332C35.1282 25.5185 35.2832 26.8384 34.4935 27.6281L33.2069 28.9147C31.0726 31.049 27.8245 31.6054 25.1017 30.3031L24.5102 30.0202C19.9006 27.8156 16.1845 24.0996 13.9798 19.49L13.697 18.8987C12.3946 16.1758 12.951 12.9276 15.0852 10.7933Z" fill="white"/>
<path d="M47.553 27V16.493L45.216 18.279L44.095 16.721L47.933 13.7H49.89V27H47.553ZM57.4974 27.19C54.5144 27.19 52.7094 25.176 52.7094 20.35C52.7094 15.505 54.5524 13.51 57.4594 13.51C60.4804 13.51 62.3044 15.505 62.3044 20.35C62.3044 25.29 60.3854 27.19 57.4974 27.19ZM57.4974 25.29C58.9414 25.29 59.8724 24.093 59.8724 20.35C59.8724 16.512 58.9224 15.41 57.4594 15.41C56.0914 15.41 55.1414 16.493 55.1414 20.35C55.1414 24.169 56.1294 25.29 57.4974 25.29ZM69.2796 27.19C66.2966 27.19 64.4916 25.176 64.4916 20.35C64.4916 15.505 66.3346 13.51 69.2416 13.51C72.2626 13.51 74.0866 15.505 74.0866 20.35C74.0866 25.29 72.1676 27.19 69.2796 27.19ZM69.2796 25.29C70.7236 25.29 71.6546 24.093 71.6546 20.35C71.6546 16.512 70.7046 15.41 69.2416 15.41C67.8736 15.41 66.9236 16.493 66.9236 20.35C66.9236 24.169 67.9116 25.29 69.2796 25.29ZM81.0619 27.19C78.0789 27.19 76.2739 25.176 76.2739 20.35C76.2739 15.505 78.1169 13.51 81.0239 13.51C84.0449 13.51 85.8689 15.505 85.8689 20.35C85.8689 25.29 83.9499 27.19 81.0619 27.19ZM81.0619 25.29C82.5059 25.29 83.4369 24.093 83.4369 20.35C83.4369 16.512 82.4869 15.41 81.0239 15.41C79.6559 15.41 78.7059 16.493 78.7059 20.35C78.7059 24.169 79.6939 25.29 81.0619 25.29Z" fill="white"/>
</svg>
