<svg width="224" height="224" viewBox="0 0 224 224" fill="none" xmlns="http://www.w3.org/2000/svg">
<rect width="224" height="224" rx="16" fill="white"/>
<path d="M18.0606 12H12V18.0606H18.0606V12Z" fill="black"/>
<path d="M24.1212 12H18.0606V18.0606H24.1212V12Z" fill="black"/>
<path d="M30.1818 12H24.1212V18.0606H30.1818V12Z" fill="black"/>
<path d="M36.2424 12H30.1818V18.0606H36.2424V12Z" fill="black"/>
<path d="M42.303 12H36.2424V18.0606H42.303V12Z" fill="black"/>
<path d="M48.3636 12H42.303V18.0606H48.3636V12Z" fill="black"/>
<path d="M54.4242 12H48.3636V18.0606H54.4242V12Z" fill="black"/>
<path d="M66.5455 12H60.4848V18.0606H66.5455V12Z" fill="black"/>
<path d="M78.6667 12H72.6061V18.0606H78.6667V12Z" fill="black"/>
<path d="M84.7273 12H78.6667V18.0606H84.7273V12Z" fill="black"/>
<path d="M96.8485 12H90.7879V18.0606H96.8485V12Z" fill="black"/>
<path d="M121.091 12H115.03V18.0606H121.091V12Z" fill="black"/>
<path d="M127.152 12H121.091V18.0606H127.152V12Z" fill="black"/>
<path d="M145.333 12H139.273V18.0606H145.333V12Z" fill="black"/>
<path d="M163.515 12H157.455V18.0606H163.515V12Z" fill="black"/>
<path d="M175.636 12H169.576V18.0606H175.636V12Z" fill="black"/>
<path d="M181.697 12H175.636V18.0606H181.697V12Z" fill="black"/>
<path d="M187.758 12H181.697V18.0606H187.758V12Z" fill="black"/>
<path d="M193.818 12H187.758V18.0606H193.818V12Z" fill="black"/>
<path d="M199.879 12H193.818V18.0606H199.879V12Z" fill="black"/>
<path d="M205.939 12H199.879V18.0606H205.939V12Z" fill="black"/>
<path d="M212 12H205.939V18.0606H212V12Z" fill="black"/>
<path d="M18.0606 18.0606H12V24.1212H18.0606V18.0606Z" fill="black"/>
<path d="M54.4242 18.0606H48.3636V24.1212H54.4242V18.0606Z" fill="black"/>
<path d="M78.6667 18.0606H72.6061V24.1212H78.6667V18.0606Z" fill="black"/>
<path d="M90.7879 18.0606H84.7273V24.1212H90.7879V18.0606Z" fill="black"/>
<path d="M108.97 18.0606H102.909V24.1212H108.97V18.0606Z" fill="black"/>
<path d="M115.03 18.0606H108.97V24.1212H115.03V18.0606Z" fill="black"/>
<path d="M139.273 18.0606H133.212V24.1212H139.273V18.0606Z" fill="black"/>
<path d="M157.455 18.0606H151.394V24.1212H157.455V18.0606Z" fill="black"/>
<path d="M175.636 18.0606H169.576V24.1212H175.636V18.0606Z" fill="black"/>
<path d="M212 18.0606H205.939V24.1212H212V18.0606Z" fill="black"/>
<path d="M18.0606 24.1212H12V30.1818H18.0606V24.1212Z" fill="black"/>
<path d="M30.1818 24.1212H24.1212V30.1818H30.1818V24.1212Z" fill="black"/>
<path d="M36.2424 24.1212H30.1818V30.1818H36.2424V24.1212Z" fill="black"/>
<path d="M42.303 24.1212H36.2424V30.1818H42.303V24.1212Z" fill="black"/>
<path d="M54.4242 24.1212H48.3636V30.1818H54.4242V24.1212Z" fill="black"/>
<path d="M66.5455 24.1212H60.4848V30.1818H66.5455V24.1212Z" fill="black"/>
<path d="M72.6061 24.1212H66.5455V30.1818H72.6061V24.1212Z" fill="black"/>
<path d="M84.7273 24.1212H78.6667V30.1818H84.7273V24.1212Z" fill="black"/>
<path d="M90.7879 24.1212H84.7273V30.1818H90.7879V24.1212Z" fill="black"/>
<path d="M108.97 24.1212H102.909V30.1818H108.97V24.1212Z" fill="black"/>
<path d="M121.091 24.1212H115.03V30.1818H121.091V24.1212Z" fill="black"/>
<path d="M133.212 24.1212H127.152V30.1818H133.212V24.1212Z" fill="black"/>
<path d="M139.273 24.1212H133.212V30.1818H139.273V24.1212Z" fill="black"/>
<path d="M151.394 24.1212H145.333V30.1818H151.394V24.1212Z" fill="black"/>
<path d="M175.636 24.1212H169.576V30.1818H175.636V24.1212Z" fill="black"/>
<path d="M187.758 24.1212H181.697V30.1818H187.758V24.1212Z" fill="black"/>
<path d="M193.818 24.1212H187.758V30.1818H193.818V24.1212Z" fill="black"/>
<path d="M199.879 24.1212H193.818V30.1818H199.879V24.1212Z" fill="black"/>
<path d="M212 24.1212H205.939V30.1818H212V24.1212Z" fill="black"/>
<path d="M18.0606 30.1818H12V36.2424H18.0606V30.1818Z" fill="black"/>
<path d="M30.1818 30.1818H24.1212V36.2424H30.1818V30.1818Z" fill="black"/>
<path d="M36.2424 30.1818H30.1818V36.2424H36.2424V30.1818Z" fill="black"/>
<path d="M42.303 30.1818H36.2424V36.2424H42.303V30.1818Z" fill="black"/>
<path d="M54.4242 30.1818H48.3636V36.2424H54.4242V30.1818Z" fill="black"/>
<path d="M66.5455 30.1818H60.4848V36.2424H66.5455V30.1818Z" fill="black"/>
<path d="M84.7273 30.1818H78.6667V36.2424H84.7273V30.1818Z" fill="black"/>
<path d="M90.7879 30.1818H84.7273V36.2424H90.7879V30.1818Z" fill="black"/>
<path d="M96.8485 30.1818H90.7879V36.2424H96.8485V30.1818Z" fill="black"/>
<path d="M108.97 30.1818H102.909V36.2424H108.97V30.1818Z" fill="black"/>
<path d="M115.03 30.1818H108.97V36.2424H115.03V30.1818Z" fill="black"/>
<path d="M139.273 30.1818H133.212V36.2424H139.273V30.1818Z" fill="black"/>
<path d="M145.333 30.1818H139.273V36.2424H145.333V30.1818Z" fill="black"/>
<path d="M163.515 30.1818H157.455V36.2424H163.515V30.1818Z" fill="black"/>
<path d="M175.636 30.1818H169.576V36.2424H175.636V30.1818Z" fill="black"/>
<path d="M187.758 30.1818H181.697V36.2424H187.758V30.1818Z" fill="black"/>
<path d="M193.818 30.1818H187.758V36.2424H193.818V30.1818Z" fill="black"/>
<path d="M199.879 30.1818H193.818V36.2424H199.879V30.1818Z" fill="black"/>
<path d="M212 30.1818H205.939V36.2424H212V30.1818Z" fill="black"/>
<path d="M18.0606 36.2424H12V42.303H18.0606V36.2424Z" fill="black"/>
<path d="M30.1818 36.2424H24.1212V42.303H30.1818V36.2424Z" fill="black"/>
<path d="M36.2424 36.2424H30.1818V42.303H36.2424V36.2424Z" fill="black"/>
<path d="M42.303 36.2424H36.2424V42.303H42.303V36.2424Z" fill="black"/>
<path d="M54.4242 36.2424H48.3636V42.303H54.4242V36.2424Z" fill="black"/>
<path d="M78.6667 36.2424H72.6061V42.303H78.6667V36.2424Z" fill="black"/>
<path d="M84.7273 36.2424H78.6667V42.303H84.7273V36.2424Z" fill="black"/>
<path d="M96.8485 36.2424H90.7879V42.303H96.8485V36.2424Z" fill="black"/>
<path d="M108.97 36.2424H102.909V42.303H108.97V36.2424Z" fill="black"/>
<path d="M115.03 36.2424H108.97V42.303H115.03V36.2424Z" fill="black"/>
<path d="M127.152 36.2424H121.091V42.303H127.152V36.2424Z" fill="black"/>
<path d="M139.273 36.2424H133.212V42.303H139.273V36.2424Z" fill="black"/>
<path d="M145.333 36.2424H139.273V42.303H145.333V36.2424Z" fill="black"/>
<path d="M151.394 36.2424H145.333V42.303H151.394V36.2424Z" fill="black"/>
<path d="M175.636 36.2424H169.576V42.303H175.636V36.2424Z" fill="black"/>
<path d="M187.758 36.2424H181.697V42.303H187.758V36.2424Z" fill="black"/>
<path d="M193.818 36.2424H187.758V42.303H193.818V36.2424Z" fill="black"/>
<path d="M199.879 36.2424H193.818V42.303H199.879V36.2424Z" fill="black"/>
<path d="M212 36.2424H205.939V42.303H212V36.2424Z" fill="black"/>
<path d="M18.0606 42.303H12V48.3636H18.0606V42.303Z" fill="black"/>
<path d="M54.4242 42.303H48.3636V48.3636H54.4242V42.303Z" fill="black"/>
<path d="M66.5455 42.303H60.4848V48.3636H66.5455V42.303Z" fill="black"/>
<path d="M78.6667 42.303H72.6061V48.3636H78.6667V42.303Z" fill="black"/>
<path d="M84.7273 42.303H78.6667V48.3636H84.7273V42.303Z" fill="black"/>
<path d="M90.7879 42.303H84.7273V48.3636H90.7879V42.303Z" fill="black"/>
<path d="M96.8485 42.303H90.7879V48.3636H96.8485V42.303Z" fill="black"/>
<path d="M102.909 42.303H96.8485V48.3636H102.909V42.303Z" fill="black"/>
<path d="M121.091 42.303H115.03V48.3636H121.091V42.303Z" fill="black"/>
<path d="M127.152 42.303H121.091V48.3636H127.152V42.303Z" fill="black"/>
<path d="M151.394 42.303H145.333V48.3636H151.394V42.303Z" fill="black"/>
<path d="M157.455 42.303H151.394V48.3636H157.455V42.303Z" fill="black"/>
<path d="M175.636 42.303H169.576V48.3636H175.636V42.303Z" fill="black"/>
<path d="M212 42.303H205.939V48.3636H212V42.303Z" fill="black"/>
<path d="M18.0606 48.3636H12V54.4242H18.0606V48.3636Z" fill="black"/>
<path d="M24.1212 48.3636H18.0606V54.4242H24.1212V48.3636Z" fill="black"/>
<path d="M30.1818 48.3636H24.1212V54.4242H30.1818V48.3636Z" fill="black"/>
<path d="M36.2424 48.3636H30.1818V54.4242H36.2424V48.3636Z" fill="black"/>
<path d="M42.303 48.3636H36.2424V54.4242H42.303V48.3636Z" fill="black"/>
<path d="M48.3636 48.3636H42.303V54.4242H48.3636V48.3636Z" fill="black"/>
<path d="M54.4242 48.3636H48.3636V54.4242H54.4242V48.3636Z" fill="black"/>
<path d="M66.5455 48.3636H60.4848V54.4242H66.5455V48.3636Z" fill="black"/>
<path d="M78.6667 48.3636H72.6061V54.4242H78.6667V48.3636Z" fill="black"/>
<path d="M90.7879 48.3636H84.7273V54.4242H90.7879V48.3636Z" fill="black"/>
<path d="M102.909 48.3636H96.8485V54.4242H102.909V48.3636Z" fill="black"/>
<path d="M115.03 48.3636H108.97V54.4242H115.03V48.3636Z" fill="black"/>
<path d="M127.152 48.3636H121.091V54.4242H127.152V48.3636Z" fill="black"/>
<path d="M139.273 48.3636H133.212V54.4242H139.273V48.3636Z" fill="black"/>
<path d="M151.394 48.3636H145.333V54.4242H151.394V48.3636Z" fill="black"/>
<path d="M163.515 48.3636H157.455V54.4242H163.515V48.3636Z" fill="black"/>
<path d="M175.636 48.3636H169.576V54.4242H175.636V48.3636Z" fill="black"/>
<path d="M181.697 48.3636H175.636V54.4242H181.697V48.3636Z" fill="black"/>
<path d="M187.758 48.3636H181.697V54.4242H187.758V48.3636Z" fill="black"/>
<path d="M193.818 48.3636H187.758V54.4242H193.818V48.3636Z" fill="black"/>
<path d="M199.879 48.3636H193.818V54.4242H199.879V48.3636Z" fill="black"/>
<path d="M205.939 48.3636H199.879V54.4242H205.939V48.3636Z" fill="black"/>
<path d="M212 48.3636H205.939V54.4242H212V48.3636Z" fill="black"/>
<path d="M66.5455 54.4242H60.4848V60.4848H66.5455V54.4242Z" fill="black"/>
<path d="M72.6061 54.4242H66.5455V60.4848H72.6061V54.4242Z" fill="black"/>
<path d="M96.8485 54.4242H90.7879V60.4848H96.8485V54.4242Z" fill="black"/>
<path d="M115.03 54.4242H108.97V60.4848H115.03V54.4242Z" fill="black"/>
<path d="M121.091 54.4242H115.03V60.4848H121.091V54.4242Z" fill="black"/>
<path d="M151.394 54.4242H145.333V60.4848H151.394V54.4242Z" fill="black"/>
<path d="M163.515 54.4242H157.455V60.4848H163.515V54.4242Z" fill="black"/>
<path d="M18.0606 60.4848H12V66.5455H18.0606V60.4848Z" fill="black"/>
<path d="M24.1212 60.4848H18.0606V66.5455H24.1212V60.4848Z" fill="black"/>
<path d="M36.2424 60.4848H30.1818V66.5455H36.2424V60.4848Z" fill="black"/>
<path d="M54.4242 60.4848H48.3636V66.5455H54.4242V60.4848Z" fill="black"/>
<path d="M60.4848 60.4848H54.4242V66.5455H60.4848V60.4848Z" fill="black"/>
<path d="M72.6061 60.4848H66.5455V66.5455H72.6061V60.4848Z" fill="black"/>
<path d="M78.6667 60.4848H72.6061V66.5455H78.6667V60.4848Z" fill="black"/>
<path d="M84.7273 60.4848H78.6667V66.5455H84.7273V60.4848Z" fill="black"/>
<path d="M96.8485 60.4848H90.7879V66.5455H96.8485V60.4848Z" fill="black"/>
<path d="M121.091 60.4848H115.03V66.5455H121.091V60.4848Z" fill="black"/>
<path d="M127.152 60.4848H121.091V66.5455H127.152V60.4848Z" fill="black"/>
<path d="M151.394 60.4848H145.333V66.5455H151.394V60.4848Z" fill="black"/>
<path d="M163.515 60.4848H157.455V66.5455H163.515V60.4848Z" fill="black"/>
<path d="M169.576 60.4848H163.515V66.5455H169.576V60.4848Z" fill="black"/>
<path d="M175.636 60.4848H169.576V66.5455H175.636V60.4848Z" fill="black"/>
<path d="M181.697 60.4848H175.636V66.5455H181.697V60.4848Z" fill="black"/>
<path d="M193.818 60.4848H187.758V66.5455H193.818V60.4848Z" fill="black"/>
<path d="M199.879 60.4848H193.818V66.5455H199.879V60.4848Z" fill="black"/>
<path d="M212 60.4848H205.939V66.5455H212V60.4848Z" fill="black"/>
<path d="M24.1212 66.5455H18.0606V72.6061H24.1212V66.5455Z" fill="black"/>
<path d="M36.2424 66.5455H30.1818V72.6061H36.2424V66.5455Z" fill="black"/>
<path d="M78.6667 66.5455H72.6061V72.6061H78.6667V66.5455Z" fill="black"/>
<path d="M84.7273 66.5455H78.6667V72.6061H84.7273V66.5455Z" fill="black"/>
<path d="M108.97 66.5455H102.909V72.6061H108.97V66.5455Z" fill="black"/>
<path d="M115.03 66.5455H108.97V72.6061H115.03V66.5455Z" fill="black"/>
<path d="M121.091 66.5455H115.03V72.6061H121.091V66.5455Z" fill="black"/>
<path d="M127.152 66.5455H121.091V72.6061H127.152V66.5455Z" fill="black"/>
<path d="M133.212 66.5455H127.152V72.6061H133.212V66.5455Z" fill="black"/>
<path d="M145.333 66.5455H139.273V72.6061H145.333V66.5455Z" fill="black"/>
<path d="M175.636 66.5455H169.576V72.6061H175.636V66.5455Z" fill="black"/>
<path d="M187.758 66.5455H181.697V72.6061H187.758V66.5455Z" fill="black"/>
<path d="M193.818 66.5455H187.758V72.6061H193.818V66.5455Z" fill="black"/>
<path d="M199.879 66.5455H193.818V72.6061H199.879V66.5455Z" fill="black"/>
<path d="M205.939 66.5455H199.879V72.6061H205.939V66.5455Z" fill="black"/>
<path d="M24.1212 72.6061H18.0606V78.6667H24.1212V72.6061Z" fill="black"/>
<path d="M48.3636 72.6061H42.303V78.6667H48.3636V72.6061Z" fill="black"/>
<path d="M54.4242 72.6061H48.3636V78.6667H54.4242V72.6061Z" fill="black"/>
<path d="M66.5455 72.6061H60.4848V78.6667H66.5455V72.6061Z" fill="black"/>
<path d="M72.6061 72.6061H66.5455V78.6667H72.6061V72.6061Z" fill="black"/>
<path d="M84.7273 72.6061H78.6667V78.6667H84.7273V72.6061Z" fill="black"/>
<path d="M102.909 72.6061H96.8485V78.6667H102.909V72.6061Z" fill="black"/>
<path d="M108.97 72.6061H102.909V78.6667H108.97V72.6061Z" fill="black"/>
<path d="M127.152 72.6061H121.091V78.6667H127.152V72.6061Z" fill="black"/>
<path d="M139.273 72.6061H133.212V78.6667H139.273V72.6061Z" fill="black"/>
<path d="M145.333 72.6061H139.273V78.6667H145.333V72.6061Z" fill="black"/>
<path d="M163.515 72.6061H157.455V78.6667H163.515V72.6061Z" fill="black"/>
<path d="M169.576 72.6061H163.515V78.6667H169.576V72.6061Z" fill="black"/>
<path d="M175.636 72.6061H169.576V78.6667H175.636V72.6061Z" fill="black"/>
<path d="M187.758 72.6061H181.697V78.6667H187.758V72.6061Z" fill="black"/>
<path d="M193.818 72.6061H187.758V78.6667H193.818V72.6061Z" fill="black"/>
<path d="M212 72.6061H205.939V78.6667H212V72.6061Z" fill="black"/>
<path d="M18.0606 78.6667H12V84.7273H18.0606V78.6667Z" fill="black"/>
<path d="M24.1212 78.6667H18.0606V84.7273H24.1212V78.6667Z" fill="black"/>
<path d="M36.2424 78.6667H30.1818V84.7273H36.2424V78.6667Z" fill="black"/>
<path d="M60.4848 78.6667H54.4242V84.7273H60.4848V78.6667Z" fill="black"/>
<path d="M78.6667 78.6667H72.6061V84.7273H78.6667V78.6667Z" fill="black"/>
<path d="M102.909 78.6667H96.8485V84.7273H102.909V78.6667Z" fill="black"/>
<path d="M121.091 78.6667H115.03V84.7273H121.091V78.6667Z" fill="black"/>
<path d="M127.152 78.6667H121.091V84.7273H127.152V78.6667Z" fill="black"/>
<path d="M139.273 78.6667H133.212V84.7273H139.273V78.6667Z" fill="black"/>
<path d="M145.333 78.6667H139.273V84.7273H145.333V78.6667Z" fill="black"/>
<path d="M157.455 78.6667H151.394V84.7273H157.455V78.6667Z" fill="black"/>
<path d="M163.515 78.6667H157.455V84.7273H163.515V78.6667Z" fill="black"/>
<path d="M175.636 78.6667H169.576V84.7273H175.636V78.6667Z" fill="black"/>
<path d="M205.939 78.6667H199.879V84.7273H205.939V78.6667Z" fill="black"/>
<path d="M42.303 84.7273H36.2424V90.7879H42.303V84.7273Z" fill="black"/>
<path d="M54.4242 84.7273H48.3636V90.7879H54.4242V84.7273Z" fill="black"/>
<path d="M60.4848 84.7273H54.4242V90.7879H60.4848V84.7273Z" fill="black"/>
<path d="M72.6061 84.7273H66.5455V90.7879H72.6061V84.7273Z" fill="black"/>
<path d="M84.7273 84.7273H78.6667V90.7879H84.7273V84.7273Z" fill="black"/>
<path d="M90.7879 84.7273H84.7273V90.7879H90.7879V84.7273Z" fill="black"/>
<path d="M115.03 84.7273H108.97V90.7879H115.03V84.7273Z" fill="black"/>
<path d="M151.394 84.7273H145.333V90.7879H151.394V84.7273Z" fill="black"/>
<path d="M157.455 84.7273H151.394V90.7879H157.455V84.7273Z" fill="black"/>
<path d="M169.576 84.7273H163.515V90.7879H169.576V84.7273Z" fill="black"/>
<path d="M175.636 84.7273H169.576V90.7879H175.636V84.7273Z" fill="black"/>
<path d="M187.758 84.7273H181.697V90.7879H187.758V84.7273Z" fill="black"/>
<path d="M199.879 84.7273H193.818V90.7879H199.879V84.7273Z" fill="black"/>
<path d="M205.939 84.7273H199.879V90.7879H205.939V84.7273Z" fill="black"/>
<path d="M212 84.7273H205.939V90.7879H212V84.7273Z" fill="black"/>
<path d="M18.0606 90.7879H12V96.8485H18.0606V90.7879Z" fill="black"/>
<path d="M24.1212 90.7879H18.0606V96.8485H24.1212V90.7879Z" fill="black"/>
<path d="M42.303 90.7879H36.2424V96.8485H42.303V90.7879Z" fill="black"/>
<path d="M84.7273 90.7879H78.6667V96.8485H84.7273V90.7879Z" fill="black"/>
<path d="M96.8485 90.7879H90.7879V96.8485H96.8485V90.7879Z" fill="black"/>
<path d="M108.97 90.7879H102.909V96.8485H108.97V90.7879Z" fill="black"/>
<path d="M133.212 90.7879H127.152V96.8485H133.212V90.7879Z" fill="black"/>
<path d="M139.273 90.7879H133.212V96.8485H139.273V90.7879Z" fill="black"/>
<path d="M145.333 90.7879H139.273V96.8485H145.333V90.7879Z" fill="black"/>
<path d="M151.394 90.7879H145.333V96.8485H151.394V90.7879Z" fill="black"/>
<path d="M163.515 90.7879H157.455V96.8485H163.515V90.7879Z" fill="black"/>
<path d="M169.576 90.7879H163.515V96.8485H169.576V90.7879Z" fill="black"/>
<path d="M175.636 90.7879H169.576V96.8485H175.636V90.7879Z" fill="black"/>
<path d="M193.818 90.7879H187.758V96.8485H193.818V90.7879Z" fill="black"/>
<path d="M199.879 90.7879H193.818V96.8485H199.879V90.7879Z" fill="black"/>
<path d="M205.939 90.7879H199.879V96.8485H205.939V90.7879Z" fill="black"/>
<path d="M18.0606 96.8485H12V102.909H18.0606V96.8485Z" fill="black"/>
<path d="M36.2424 96.8485H30.1818V102.909H36.2424V96.8485Z" fill="black"/>
<path d="M42.303 96.8485H36.2424V102.909H42.303V96.8485Z" fill="black"/>
<path d="M48.3636 96.8485H42.303V102.909H48.3636V96.8485Z" fill="black"/>
<path d="M54.4242 96.8485H48.3636V102.909H54.4242V96.8485Z" fill="black"/>
<path d="M66.5455 96.8485H60.4848V102.909H66.5455V96.8485Z" fill="black"/>
<path d="M72.6061 96.8485H66.5455V102.909H72.6061V96.8485Z" fill="black"/>
<path d="M78.6667 96.8485H72.6061V102.909H78.6667V96.8485Z" fill="black"/>
<path d="M84.7273 96.8485H78.6667V102.909H84.7273V96.8485Z" fill="black"/>
<path d="M108.97 96.8485H102.909V102.909H108.97V96.8485Z" fill="black"/>
<path d="M115.03 96.8485H108.97V102.909H115.03V96.8485Z" fill="black"/>
<path d="M121.091 96.8485H115.03V102.909H121.091V96.8485Z" fill="black"/>
<path d="M133.212 96.8485H127.152V102.909H133.212V96.8485Z" fill="black"/>
<path d="M151.394 96.8485H145.333V102.909H151.394V96.8485Z" fill="black"/>
<path d="M157.455 96.8485H151.394V102.909H157.455V96.8485Z" fill="black"/>
<path d="M175.636 96.8485H169.576V102.909H175.636V96.8485Z" fill="black"/>
<path d="M181.697 96.8485H175.636V102.909H181.697V96.8485Z" fill="black"/>
<path d="M193.818 96.8485H187.758V102.909H193.818V96.8485Z" fill="black"/>
<path d="M205.939 96.8485H199.879V102.909H205.939V96.8485Z" fill="black"/>
<path d="M18.0606 102.909H12V108.97H18.0606V102.909Z" fill="black"/>
<path d="M90.7879 102.909H84.7273V108.97H90.7879V102.909Z" fill="black"/>
<path d="M102.909 102.909H96.8485V108.97H102.909V102.909Z" fill="black"/>
<path d="M115.03 102.909H108.97V108.97H115.03V102.909Z" fill="black"/>
<path d="M121.091 102.909H115.03V108.97H121.091V102.909Z" fill="black"/>
<path d="M127.152 102.909H121.091V108.97H127.152L127.152 102.909Z" fill="black"/>
<path d="M145.333 102.909H139.273V108.97H145.333V102.909Z" fill="black"/>
<path d="M163.515 102.909H157.455V108.97H163.515V102.909Z" fill="black"/>
<path d="M169.576 102.909H163.515V108.97H169.576V102.909Z" fill="black"/>
<path d="M187.758 102.909H181.697V108.97H187.758V102.909Z" fill="black"/>
<path d="M205.939 102.909H199.879V108.97H205.939V102.909Z" fill="black"/>
<path d="M212 102.909H205.939V108.97H212V102.909Z" fill="black"/>
<path d="M18.0606 108.97H12V115.03H18.0606V108.97Z" fill="black"/>
<path d="M24.1212 108.97H18.0606V115.03H24.1212V108.97Z" fill="black"/>
<path d="M36.2424 108.97H30.1818V115.03H36.2424V108.97Z" fill="black"/>
<path d="M54.4242 108.97H48.3636V115.03H54.4242V108.97Z" fill="black"/>
<path d="M66.5455 108.97H60.4848V115.03H66.5455V108.97Z" fill="black"/>
<path d="M72.6061 108.97H66.5455V115.03H72.6061V108.97Z" fill="black"/>
<path d="M96.8485 108.97H90.7879V115.03H96.8485V108.97Z" fill="black"/>
<path d="M102.909 108.97H96.8485V115.03H102.909V108.97Z" fill="black"/>
<path d="M108.97 108.97H102.909V115.03H108.97V108.97Z" fill="black"/>
<path d="M115.03 108.97H108.97V115.03H115.03V108.97Z" fill="black"/>
<path d="M127.152 108.97H121.091V115.03H127.152V108.97Z" fill="black"/>
<path d="M133.212 108.97H127.152V115.03H133.212V108.97Z" fill="black"/>
<path d="M151.394 108.97H145.333V115.03H151.394V108.97Z" fill="black"/>
<path d="M157.455 108.97H151.394V115.03H157.455V108.97Z" fill="black"/>
<path d="M163.515 108.97H157.455V115.03H163.515V108.97Z" fill="black"/>
<path d="M169.576 108.97H163.515V115.03H169.576V108.97Z" fill="black"/>
<path d="M181.697 108.97H175.636V115.03H181.697V108.97Z" fill="black"/>
<path d="M205.939 108.97H199.879V115.03H205.939V108.97Z" fill="black"/>
<path d="M18.0606 115.03H12V121.091H18.0606V115.03Z" fill="black"/>
<path d="M30.1818 115.03H24.1212V121.091H30.1818V115.03Z" fill="black"/>
<path d="M48.3636 115.03H42.303V121.091H48.3636V115.03Z" fill="black"/>
<path d="M60.4848 115.03H54.4242V121.091H60.4848V115.03Z" fill="black"/>
<path d="M66.5455 115.03H60.4848V121.091H66.5455V115.03Z" fill="black"/>
<path d="M78.6667 115.03H72.6061V121.091H78.6667V115.03Z" fill="black"/>
<path d="M96.8485 115.03H90.7879V121.091H96.8485V115.03Z" fill="black"/>
<path d="M121.091 115.03H115.03V121.091H121.091V115.03Z" fill="black"/>
<path d="M127.152 115.03H121.091V121.091H127.152V115.03Z" fill="black"/>
<path d="M163.515 115.03H157.455V121.091H163.515V115.03Z" fill="black"/>
<path d="M169.576 115.03H163.515V121.091H169.576V115.03Z" fill="black"/>
<path d="M187.758 115.03H181.697V121.091H187.758V115.03Z" fill="black"/>
<path d="M205.939 115.03H199.879V121.091H205.939V115.03Z" fill="black"/>
<path d="M212 115.03H205.939V121.091H212V115.03Z" fill="black"/>
<path d="M18.0606 121.091H12V127.152H18.0606V121.091Z" fill="black"/>
<path d="M24.1212 121.091H18.0606V127.152H24.1212V121.091Z" fill="black"/>
<path d="M48.3636 121.091H42.303V127.152H48.3636V121.091Z" fill="black"/>
<path d="M54.4242 121.091H48.3636V127.152H54.4242V121.091Z" fill="black"/>
<path d="M60.4848 121.091H54.4242V127.152H60.4848V121.091Z" fill="black"/>
<path d="M66.5455 121.091H60.4848V127.152H66.5455V121.091Z" fill="black"/>
<path d="M72.6061 121.091H66.5455V127.152H72.6061V121.091Z" fill="black"/>
<path d="M84.7273 121.091H78.6667V127.152H84.7273V121.091Z" fill="black"/>
<path d="M90.7879 121.091H84.7273V127.152H90.7879V121.091Z" fill="black"/>
<path d="M96.8485 121.091H90.7879V127.152H96.8485V121.091Z" fill="black"/>
<path d="M102.909 121.091H96.8485V127.152H102.909V121.091Z" fill="black"/>
<path d="M108.97 121.091H102.909V127.152H108.97V121.091Z" fill="black"/>
<path d="M115.03 121.091H108.97V127.152H115.03V121.091Z" fill="black"/>
<path d="M121.091 121.091H115.03V127.152H121.091V121.091Z" fill="black"/>
<path d="M139.273 121.091H133.212V127.152H139.273V121.091Z" fill="black"/>
<path d="M145.333 121.091H139.273V127.152H145.333V121.091Z" fill="black"/>
<path d="M157.455 121.091H151.394V127.152H157.455V121.091Z" fill="black"/>
<path d="M193.818 121.091H187.758V127.152H193.818V121.091Z" fill="black"/>
<path d="M199.879 121.091H193.818V127.152H199.879V121.091Z" fill="black"/>
<path d="M205.939 121.091H199.879V127.152H205.939V121.091Z" fill="black"/>
<path d="M18.0606 127.152H12V133.212H18.0606V127.152Z" fill="black"/>
<path d="M30.1818 127.152L24.1212 127.152V133.212H30.1818V127.152Z" fill="black"/>
<path d="M48.3636 127.152H42.303V133.212H48.3636V127.152Z" fill="black"/>
<path d="M66.5455 127.152H60.4848V133.212H66.5455V127.152Z" fill="black"/>
<path d="M72.6061 127.152H66.5455V133.212H72.6061V127.152Z" fill="black"/>
<path d="M108.97 127.152H102.909V133.212H108.97V127.152Z" fill="black"/>
<path d="M115.03 127.152H108.97V133.212H115.03V127.152Z" fill="black"/>
<path d="M133.212 127.152L127.152 127.152V133.212H133.212V127.152Z" fill="black"/>
<path d="M157.455 127.152H151.394V133.212H157.455V127.152Z" fill="black"/>
<path d="M169.576 127.152H163.515V133.212H169.576V127.152Z" fill="black"/>
<path d="M175.636 127.152H169.576V133.212H175.636V127.152Z" fill="black"/>
<path d="M181.697 127.152H175.636V133.212H181.697V127.152Z" fill="black"/>
<path d="M193.818 127.152H187.758V133.212H193.818V127.152Z" fill="black"/>
<path d="M199.879 127.152H193.818V133.212H199.879V127.152Z" fill="black"/>
<path d="M205.939 127.152H199.879V133.212H205.939V127.152Z" fill="black"/>
<path d="M30.1818 133.212H24.1212V139.273H30.1818V133.212Z" fill="black"/>
<path d="M36.2424 133.212H30.1818V139.273H36.2424V133.212Z" fill="black"/>
<path d="M42.303 133.212H36.2424V139.273H42.303V133.212Z" fill="black"/>
<path d="M48.3636 133.212H42.303V139.273H48.3636V133.212Z" fill="black"/>
<path d="M54.4242 133.212H48.3636V139.273H54.4242V133.212Z" fill="black"/>
<path d="M60.4848 133.212H54.4242V139.273H60.4848V133.212Z" fill="black"/>
<path d="M66.5455 133.212H60.4848V139.273H66.5455V133.212Z" fill="black"/>
<path d="M72.6061 133.212H66.5455V139.273H72.6061V133.212Z" fill="black"/>
<path d="M78.6667 133.212H72.6061V139.273H78.6667V133.212Z" fill="black"/>
<path d="M108.97 133.212H102.909V139.273H108.97V133.212Z" fill="black"/>
<path d="M121.091 133.212H115.03V139.273H121.091V133.212Z" fill="black"/>
<path d="M139.273 133.212H133.212V139.273H139.273V133.212Z" fill="black"/>
<path d="M169.576 133.212H163.515V139.273H169.576V133.212Z" fill="black"/>
<path d="M187.758 133.212H181.697V139.273H187.758V133.212Z" fill="black"/>
<path d="M193.818 133.212H187.758V139.273H193.818V133.212Z" fill="black"/>
<path d="M24.1212 139.273H18.0606V145.333H24.1212V139.273Z" fill="black"/>
<path d="M30.1818 139.273H24.1212V145.333H30.1818V139.273Z" fill="black"/>
<path d="M36.2424 139.273H30.1818V145.333H36.2424V139.273Z" fill="black"/>
<path d="M66.5455 139.273H60.4848V145.333H66.5455V139.273Z" fill="black"/>
<path d="M72.6061 139.273H66.5455V145.333H72.6061V139.273Z" fill="black"/>
<path d="M90.7879 139.273H84.7273V145.333H90.7879V139.273Z" fill="black"/>
<path d="M96.8485 139.273H90.7879V145.333H96.8485V139.273Z" fill="black"/>
<path d="M102.909 139.273H96.8485V145.333H102.909V139.273Z" fill="black"/>
<path d="M108.97 139.273H102.909V145.333H108.97V139.273Z" fill="black"/>
<path d="M115.03 139.273H108.97V145.333H115.03V139.273Z" fill="black"/>
<path d="M121.091 139.273H115.03V145.333H121.091V139.273Z" fill="black"/>
<path d="M133.212 139.273H127.152V145.333H133.212V139.273Z" fill="black"/>
<path d="M145.333 139.273H139.273V145.333H145.333V139.273Z" fill="black"/>
<path d="M151.394 139.273H145.333V145.333H151.394V139.273Z" fill="black"/>
<path d="M181.697 139.273H175.636V145.333H181.697V139.273Z" fill="black"/>
<path d="M199.879 139.273H193.818V145.333H199.879V139.273Z" fill="black"/>
<path d="M212 139.273H205.939V145.333H212V139.273Z" fill="black"/>
<path d="M24.1212 145.333H18.0606V151.394H24.1212V145.333Z" fill="black"/>
<path d="M30.1818 145.333H24.1212V151.394H30.1818V145.333Z" fill="black"/>
<path d="M36.2424 145.333H30.1818V151.394H36.2424V145.333Z" fill="black"/>
<path d="M54.4242 145.333H48.3636V151.394H54.4242V145.333Z" fill="black"/>
<path d="M60.4848 145.333H54.4242V151.394H60.4848V145.333Z" fill="black"/>
<path d="M66.5455 145.333H60.4848V151.394H66.5455V145.333Z" fill="black"/>
<path d="M96.8485 145.333H90.7879V151.394H96.8485V145.333Z" fill="black"/>
<path d="M115.03 145.333H108.97V151.394H115.03V145.333Z" fill="black"/>
<path d="M127.152 145.333H121.091V151.394H127.152L127.152 145.333Z" fill="black"/>
<path d="M151.394 145.333H145.333V151.394H151.394V145.333Z" fill="black"/>
<path d="M157.455 145.333H151.394V151.394H157.455V145.333Z" fill="black"/>
<path d="M163.515 145.333H157.455V151.394H163.515V145.333Z" fill="black"/>
<path d="M169.576 145.333H163.515V151.394H169.576V145.333Z" fill="black"/>
<path d="M175.636 145.333H169.576V151.394H175.636V145.333Z" fill="black"/>
<path d="M181.697 145.333H175.636V151.394H181.697V145.333Z" fill="black"/>
<path d="M199.879 145.333H193.818V151.394H199.879V145.333Z" fill="black"/>
<path d="M18.0606 151.394H12V157.455H18.0606V151.394Z" fill="black"/>
<path d="M24.1212 151.394H18.0606V157.455H24.1212V151.394Z" fill="black"/>
<path d="M30.1818 151.394H24.1212V157.455H30.1818V151.394Z" fill="black"/>
<path d="M36.2424 151.394H30.1818V157.455H36.2424V151.394Z" fill="black"/>
<path d="M42.303 151.394H36.2424V157.455H42.303V151.394Z" fill="black"/>
<path d="M60.4848 151.394H54.4242V157.455H60.4848V151.394Z" fill="black"/>
<path d="M66.5455 151.394H60.4848V157.455H66.5455V151.394Z" fill="black"/>
<path d="M72.6061 151.394H66.5455V157.455H72.6061V151.394Z" fill="black"/>
<path d="M78.6667 151.394H72.6061V157.455H78.6667V151.394Z" fill="black"/>
<path d="M90.7879 151.394H84.7273V157.455H90.7879V151.394Z" fill="black"/>
<path d="M115.03 151.394H108.97V157.455H115.03V151.394Z" fill="black"/>
<path d="M121.091 151.394H115.03V157.455H121.091V151.394Z" fill="black"/>
<path d="M133.212 151.394H127.152L127.152 157.455H133.212V151.394Z" fill="black"/>
<path d="M139.273 151.394H133.212V157.455H139.273V151.394Z" fill="black"/>
<path d="M145.333 151.394H139.273V157.455H145.333V151.394Z" fill="black"/>
<path d="M151.394 151.394H145.333V157.455H151.394V151.394Z" fill="black"/>
<path d="M169.576 151.394H163.515V157.455H169.576V151.394Z" fill="black"/>
<path d="M175.636 151.394H169.576V157.455H175.636V151.394Z" fill="black"/>
<path d="M181.697 151.394H175.636V157.455H181.697V151.394Z" fill="black"/>
<path d="M187.758 151.394H181.697V157.455H187.758V151.394Z" fill="black"/>
<path d="M199.879 151.394H193.818V157.455H199.879V151.394Z" fill="black"/>
<path d="M205.939 151.394H199.879V157.455H205.939V151.394Z" fill="black"/>
<path d="M212 151.394H205.939V157.455H212V151.394Z" fill="black"/>
<path d="M30.1818 157.455H24.1212V163.515H30.1818V157.455Z" fill="black"/>
<path d="M36.2424 157.455H30.1818V163.515H36.2424V157.455Z" fill="black"/>
<path d="M48.3636 157.455H42.303V163.515H48.3636V157.455Z" fill="black"/>
<path d="M54.4242 157.455H48.3636V163.515H54.4242V157.455Z" fill="black"/>
<path d="M60.4848 157.455H54.4242V163.515H60.4848V157.455Z" fill="black"/>
<path d="M78.6667 157.455H72.6061V163.515H78.6667V157.455Z" fill="black"/>
<path d="M90.7879 157.455H84.7273V163.515H90.7879V157.455Z" fill="black"/>
<path d="M96.8485 157.455H90.7879V163.515H96.8485V157.455Z" fill="black"/>
<path d="M121.091 157.455H115.03V163.515H121.091V157.455Z" fill="black"/>
<path d="M127.152 157.455H121.091V163.515H127.152L127.152 157.455Z" fill="black"/>
<path d="M133.212 157.455H127.152L127.152 163.515H133.212V157.455Z" fill="black"/>
<path d="M139.273 157.455H133.212V163.515H139.273V157.455Z" fill="black"/>
<path d="M151.394 157.455H145.333V163.515H151.394V157.455Z" fill="black"/>
<path d="M163.515 157.455H157.455V163.515H163.515V157.455Z" fill="black"/>
<path d="M169.576 157.455H163.515V163.515H169.576V157.455Z" fill="black"/>
<path d="M175.636 157.455H169.576V163.515H175.636V157.455Z" fill="black"/>
<path d="M181.697 157.455H175.636V163.515H181.697V157.455Z" fill="black"/>
<path d="M187.758 157.455H181.697V163.515H187.758V157.455Z" fill="black"/>
<path d="M193.818 157.455H187.758V163.515H193.818V157.455Z" fill="black"/>
<path d="M205.939 157.455H199.879V163.515H205.939V157.455Z" fill="black"/>
<path d="M90.7879 163.515H84.7273V169.576H90.7879V163.515Z" fill="black"/>
<path d="M108.97 163.515H102.909V169.576H108.97V163.515Z" fill="black"/>
<path d="M115.03 163.515H108.97V169.576H115.03V163.515Z" fill="black"/>
<path d="M121.091 163.515H115.03V169.576H121.091V163.515Z" fill="black"/>
<path d="M133.212 163.515H127.152L127.152 169.576H133.212V163.515Z" fill="black"/>
<path d="M145.333 163.515H139.273V169.576H145.333V163.515Z" fill="black"/>
<path d="M151.394 163.515H145.333V169.576H151.394V163.515Z" fill="black"/>
<path d="M163.515 163.515H157.455V169.576H163.515V163.515Z" fill="black"/>
<path d="M187.758 163.515H181.697V169.576H187.758V163.515Z" fill="black"/>
<path d="M205.939 163.515H199.879V169.576H205.939V163.515Z" fill="black"/>
<path d="M18.0606 169.576H12V175.636H18.0606V169.576Z" fill="black"/>
<path d="M24.1212 169.576H18.0606V175.636H24.1212V169.576Z" fill="black"/>
<path d="M30.1818 169.576H24.1212V175.636H30.1818V169.576Z" fill="black"/>
<path d="M36.2424 169.576H30.1818V175.636H36.2424V169.576Z" fill="black"/>
<path d="M42.303 169.576H36.2424V175.636H42.303V169.576Z" fill="black"/>
<path d="M48.3636 169.576H42.303V175.636H48.3636V169.576Z" fill="black"/>
<path d="M54.4242 169.576H48.3636V175.636H54.4242V169.576Z" fill="black"/>
<path d="M66.5455 169.576H60.4848V175.636H66.5455V169.576Z" fill="black"/>
<path d="M72.6061 169.576H66.5455V175.636H72.6061V169.576Z" fill="black"/>
<path d="M78.6667 169.576H72.6061V175.636H78.6667V169.576Z" fill="black"/>
<path d="M84.7273 169.576H78.6667V175.636H84.7273V169.576Z" fill="black"/>
<path d="M102.909 169.576H96.8485V175.636H102.909V169.576Z" fill="black"/>
<path d="M108.97 169.576H102.909V175.636H108.97V169.576Z" fill="black"/>
<path d="M115.03 169.576H108.97V175.636H115.03V169.576Z" fill="black"/>
<path d="M121.091 169.576H115.03V175.636H121.091V169.576Z" fill="black"/>
<path d="M133.212 169.576H127.152V175.636H133.212V169.576Z" fill="black"/>
<path d="M157.455 169.576H151.394V175.636H157.455V169.576Z" fill="black"/>
<path d="M163.515 169.576H157.455V175.636H163.515V169.576Z" fill="black"/>
<path d="M175.636 169.576H169.576V175.636H175.636V169.576Z" fill="black"/>
<path d="M187.758 169.576H181.697V175.636H187.758V169.576Z" fill="black"/>
<path d="M199.879 169.576H193.818V175.636H199.879V169.576Z" fill="black"/>
<path d="M212 169.576H205.939V175.636H212V169.576Z" fill="black"/>
<path d="M18.0606 175.636H12V181.697H18.0606V175.636Z" fill="black"/>
<path d="M54.4242 175.636H48.3636V181.697H54.4242V175.636Z" fill="black"/>
<path d="M72.6061 175.636H66.5455V181.697H72.6061V175.636Z" fill="black"/>
<path d="M78.6667 175.636H72.6061V181.697H78.6667V175.636Z" fill="black"/>
<path d="M84.7273 175.636H78.6667V181.697H84.7273V175.636Z" fill="black"/>
<path d="M96.8485 175.636H90.7879V181.697H96.8485V175.636Z" fill="black"/>
<path d="M127.152 175.636H121.091V181.697H127.152L127.152 175.636Z" fill="black"/>
<path d="M151.394 175.636H145.333V181.697H151.394V175.636Z" fill="black"/>
<path d="M157.455 175.636H151.394V181.697H157.455V175.636Z" fill="black"/>
<path d="M163.515 175.636H157.455V181.697H163.515V175.636Z" fill="black"/>
<path d="M187.758 175.636H181.697V181.697H187.758V175.636Z" fill="black"/>
<path d="M193.818 175.636H187.758V181.697H193.818V175.636Z" fill="black"/>
<path d="M199.879 175.636H193.818V181.697H199.879V175.636Z" fill="black"/>
<path d="M205.939 175.636H199.879V181.697H205.939V175.636Z" fill="black"/>
<path d="M18.0606 181.697H12V187.758H18.0606V181.697Z" fill="black"/>
<path d="M30.1818 181.697H24.1212V187.758H30.1818V181.697Z" fill="black"/>
<path d="M36.2424 181.697H30.1818V187.758H36.2424V181.697Z" fill="black"/>
<path d="M42.303 181.697H36.2424V187.758H42.303V181.697Z" fill="black"/>
<path d="M54.4242 181.697H48.3636V187.758H54.4242V181.697Z" fill="black"/>
<path d="M78.6667 181.697H72.6061V187.758H78.6667V181.697Z" fill="black"/>
<path d="M90.7879 181.697H84.7273V187.758H90.7879V181.697Z" fill="black"/>
<path d="M102.909 181.697H96.8485V187.758H102.909V181.697Z" fill="black"/>
<path d="M115.03 181.697H108.97V187.758H115.03V181.697Z" fill="black"/>
<path d="M121.091 181.697H115.03V187.758H121.091V181.697Z" fill="black"/>
<path d="M127.152 181.697H121.091V187.758H127.152V181.697Z" fill="black"/>
<path d="M133.212 181.697H127.152V187.758H133.212V181.697Z" fill="black"/>
<path d="M163.515 181.697H157.455V187.758H163.515V181.697Z" fill="black"/>
<path d="M169.576 181.697H163.515V187.758H169.576V181.697Z" fill="black"/>
<path d="M175.636 181.697H169.576V187.758H175.636V181.697Z" fill="black"/>
<path d="M181.697 181.697H175.636V187.758H181.697V181.697Z" fill="black"/>
<path d="M187.758 181.697H181.697V187.758H187.758V181.697Z" fill="black"/>
<path d="M205.939 181.697H199.879V187.758H205.939V181.697Z" fill="black"/>
<path d="M212 181.697H205.939V187.758H212V181.697Z" fill="black"/>
<path d="M18.0606 187.758H12V193.818H18.0606V187.758Z" fill="black"/>
<path d="M30.1818 187.758H24.1212V193.818H30.1818V187.758Z" fill="black"/>
<path d="M36.2424 187.758H30.1818V193.818H36.2424V187.758Z" fill="black"/>
<path d="M42.303 187.758H36.2424V193.818H42.303V187.758Z" fill="black"/>
<path d="M54.4242 187.758H48.3636V193.818H54.4242V187.758Z" fill="black"/>
<path d="M66.5455 187.758H60.4848V193.818H66.5455V187.758Z" fill="black"/>
<path d="M72.6061 187.758H66.5455V193.818H72.6061V187.758Z" fill="black"/>
<path d="M78.6667 187.758H72.6061V193.818H78.6667V187.758Z" fill="black"/>
<path d="M84.7273 187.758H78.6667V193.818H84.7273V187.758Z" fill="black"/>
<path d="M90.7879 187.758H84.7273V193.818H90.7879V187.758Z" fill="black"/>
<path d="M96.8485 187.758H90.7879V193.818H96.8485V187.758Z" fill="black"/>
<path d="M108.97 187.758H102.909V193.818H108.97V187.758Z" fill="black"/>
<path d="M115.03 187.758H108.97V193.818H115.03V187.758Z" fill="black"/>
<path d="M121.091 187.758H115.03V193.818H121.091V187.758Z" fill="black"/>
<path d="M139.273 187.758H133.212V193.818H139.273V187.758Z" fill="black"/>
<path d="M157.455 187.758H151.394V193.818H157.455V187.758Z" fill="black"/>
<path d="M169.576 187.758H163.515V193.818H169.576V187.758Z" fill="black"/>
<path d="M181.697 187.758H175.636V193.818H181.697V187.758Z" fill="black"/>
<path d="M193.818 187.758H187.758V193.818H193.818V187.758Z" fill="black"/>
<path d="M199.879 187.758H193.818V193.818H199.879V187.758Z" fill="black"/>
<path d="M205.939 187.758H199.879V193.818H205.939V187.758Z" fill="black"/>
<path d="M212 187.758H205.939V193.818H212V187.758Z" fill="black"/>
<path d="M18.0606 193.818H12V199.879H18.0606V193.818Z" fill="black"/>
<path d="M30.1818 193.818H24.1212V199.879H30.1818V193.818Z" fill="black"/>
<path d="M36.2424 193.818H30.1818V199.879H36.2424V193.818Z" fill="black"/>
<path d="M42.303 193.818H36.2424V199.879H42.303V193.818Z" fill="black"/>
<path d="M54.4242 193.818H48.3636V199.879H54.4242V193.818Z" fill="black"/>
<path d="M72.6061 193.818H66.5455V199.879H72.6061V193.818Z" fill="black"/>
<path d="M102.909 193.818H96.8485V199.879H102.909V193.818Z" fill="black"/>
<path d="M108.97 193.818H102.909V199.879H108.97V193.818Z" fill="black"/>
<path d="M115.03 193.818H108.97V199.879H115.03V193.818Z" fill="black"/>
<path d="M127.152 193.818H121.091V199.879H127.152V193.818Z" fill="black"/>
<path d="M139.273 193.818H133.212V199.879H139.273V193.818Z" fill="black"/>
<path d="M145.333 193.818H139.273V199.879H145.333V193.818Z" fill="black"/>
<path d="M151.394 193.818H145.333V199.879H151.394V193.818Z" fill="black"/>
<path d="M181.697 193.818H175.636V199.879H181.697V193.818Z" fill="black"/>
<path d="M187.758 193.818H181.697V199.879H187.758V193.818Z" fill="black"/>
<path d="M199.879 193.818H193.818V199.879H199.879V193.818Z" fill="black"/>
<path d="M212 193.818H205.939V199.879H212V193.818Z" fill="black"/>
<path d="M18.0606 199.879H12V205.939H18.0606V199.879Z" fill="black"/>
<path d="M54.4242 199.879H48.3636V205.939H54.4242V199.879Z" fill="black"/>
<path d="M66.5455 199.879H60.4848V205.939H66.5455V199.879Z" fill="black"/>
<path d="M72.6061 199.879H66.5455V205.939H72.6061V199.879Z" fill="black"/>
<path d="M78.6667 199.879H72.6061V205.939H78.6667V199.879Z" fill="black"/>
<path d="M90.7879 199.879H84.7273V205.939H90.7879V199.879Z" fill="black"/>
<path d="M96.8485 199.879H90.7879V205.939H96.8485V199.879Z" fill="black"/>
<path d="M127.152 199.879H121.091V205.939H127.152V199.879Z" fill="black"/>
<path d="M133.212 199.879H127.152V205.939H133.212V199.879Z" fill="black"/>
<path d="M151.394 199.879H145.333V205.939H151.394V199.879Z" fill="black"/>
<path d="M157.455 199.879H151.394V205.939H157.455V199.879Z" fill="black"/>
<path d="M163.515 199.879H157.455V205.939H163.515V199.879Z" fill="black"/>
<path d="M181.697 199.879H175.636V205.939H181.697V199.879Z" fill="black"/>
<path d="M193.818 199.879H187.758V205.939H193.818V199.879Z" fill="black"/>
<path d="M18.0606 205.939H12V212H18.0606V205.939Z" fill="black"/>
<path d="M24.1212 205.939H18.0606V212H24.1212V205.939Z" fill="black"/>
<path d="M30.1818 205.939H24.1212V212H30.1818V205.939Z" fill="black"/>
<path d="M36.2424 205.939H30.1818V212H36.2424V205.939Z" fill="black"/>
<path d="M42.303 205.939H36.2424V212H42.303V205.939Z" fill="black"/>
<path d="M48.3636 205.939H42.303V212H48.3636V205.939Z" fill="black"/>
<path d="M54.4242 205.939H48.3636V212H54.4242V205.939Z" fill="black"/>
<path d="M66.5455 205.939H60.4848V212H66.5455V205.939Z" fill="black"/>
<path d="M72.6061 205.939H66.5455V212H72.6061V205.939Z" fill="black"/>
<path d="M78.6667 205.939H72.6061V212H78.6667V205.939Z" fill="black"/>
<path d="M121.091 205.939H115.03V212H121.091V205.939Z" fill="black"/>
<path d="M139.273 205.939H133.212V212H139.273V205.939Z" fill="black"/>
<path d="M145.333 205.939H139.273V212H145.333V205.939Z" fill="black"/>
<path d="M151.394 205.939H145.333V212H151.394V205.939Z" fill="black"/>
<path d="M163.515 205.939H157.455V212H163.515V205.939Z" fill="black"/>
<path d="M181.697 205.939H175.636V212H181.697V205.939Z" fill="black"/>
<path d="M187.758 205.939H181.697V212H187.758V205.939Z" fill="black"/>
<path d="M193.818 205.939H187.758V212H193.818V205.939Z" fill="black"/>
<path d="M205.939 205.939H199.879V212H205.939V205.939Z" fill="black"/>
</svg>
